<?xml version="1.0" encoding="utf-8"?>
<!-- Generator: Adobe Illustrator 16.0.0, SVG Export Plug-In . SVG Version: 6.00 Build 0)  -->
<!DOCTYPE svg PUBLIC "-//W3C//DTD SVG 1.1//EN" "http://www.w3.org/Graphics/SVG/1.1/DTD/svg11.dtd">
<svg version="1.1" id="Layer_1" xmlns="http://www.w3.org/2000/svg" xmlns:xlink="http://www.w3.org/1999/xlink" x="0px" y="0px"
	 width="239px" height="327px" viewBox="0 0 239 327" enable-background="new 0 0 239 327" xml:space="preserve">
<path fill="#00ABED" d="M0,0h239v327H0V0z"/>
<path fill="#FFFFFF" d="M17,22.5h205.5V228H17V22.5z"/>
<path d="M124.333,35.333H150V61h-25.667V35.333z M89,55.333h25.667V81H89V55.333z M30,96.333h25.667V122H30V96.333z M34.667,130
	h25.667v25.667H34.667V130z M76.167,101.333h25.667V127H76.167V101.333z M122.5,109.667h25.667v25.667H122.5V109.667z
	 M93.833,137.833H119.5V163.5H93.833V137.833z M104.167,179.167h25.667v25.667h-25.667V179.167z M185.5,198.833h25.667V224.5H185.5
	V198.833z M187.833,117.167H213.5v25.667h-25.667V117.167z M159.833,93.167H185.5v25.667h-25.667V93.167z M37,42h34.667v34.667H37
	V42z"/>
<path fill="none" stroke="#000000" stroke-width="5" stroke-miterlimit="10" d="M27.333,32.333h54v54h-54V32.333z"/>
<path d="M166.833,42H201.5v34.667h-34.667V42z"/>
<path fill="none" stroke="#000000" stroke-width="5" stroke-miterlimit="10" d="M157.167,32.333h54v54h-54V32.333z"/>
<path d="M37,173.167h34.667v34.667H37V173.167z"/>
<path fill="none" stroke="#000000" stroke-width="5" stroke-miterlimit="10" d="M27.333,163.5h54v54h-54V163.5z"/>
<path fill="none" stroke="#000000" stroke-width="4" stroke-miterlimit="10" d="M147.167,151.667H189V193.5h-41.833V151.667z"/>
<path d="M161,165.5h14.167v14.167H161V165.5z"/>
<path fill="#FFFFFF" d="M89.56,282.575c4,0,7.997-0.007,11.996,0.003c1.792,0.004,3.49,0.283,3.375,2.62
	c-0.1,2.233-1.76,2.512-3.57,2.51c-6.49-0.01-12.99-0.003-19.49,0c-1.16,0.002-2.33-0.01-3.49,0.042
	c-1.32,0.061-2.19,0.684-2.29,2.104c-0.1,1.525,0.87,2.084,2.14,2.164c1.66,0.104,3.33,0.074,5,0.08
	c4.83,0.016,9.68-0.187,14.49,0.086c5.6,0.318,7.72,2.971,7.35,8.45c-0.26,3.896-1.71,5.561-5.75,6.274
	c-5.12,0.904-10.3,0.255-15.45,0.393c-3.16,0.09-6.33,0.09-9.49-0.04c-1.66-0.069-3.46-0.33-3.42-2.7
	c0.04-2.289,1.647-2.66,3.43-2.67c6.666-0.029,13.33,0.08,19.99-0.08c2.02-0.05,5.56,1.33,5.35-2.369
	c-0.17-3.051-3.442-1.75-5.38-1.811c-5.323-0.17-10.663,0.09-15.99-0.12c-5.29-0.21-7.42-2.489-7.46-7.35
	c-0.04-5.06,2.09-7.3,7.207-7.4c3.83-0.069,7.66-0.01,11.49-0.01v-0.14L89.56,282.575z M61.915,245.686
	c3.824,0,7.66-0.193,11.47,0.047c4.928,0.313,7.51,3.094,7.726,8.017c0.13,2.819,0.14,5.66-0.02,8.479
	c-0.25,4.36-2.3,6.82-6.56,7.49c-8.09,1.26-16.26,0.45-24.4,0.51c-2.12,0.011-3.19-1.25-3.15-3.58c0.11-5.819,0.13-11.649,0-17.469
	c-0.07-2.951,1.33-3.74,3.97-3.66c3.66,0.109,7.32,0.029,10.98,0.029v0.11L61.915,245.686z M63.027,264.863
	c2.164,0,4.328,0.013,6.492-0.004c5.97-0.043,6.58-0.659,6.63-6.611c0-1-0.01-1.997-0.03-2.996c-0.06-3.063-1.71-4.6-4.69-4.637
	c-5.66-0.068-11.32,0.02-16.98-0.08c-2.05-0.034-2.38,0.93-2.51,2.714c-0.84,11.61-0.88,11.61,10.57,11.61h0.5L63.027,264.863z
	 M85.36,266.607c1.27-5.989,2.515-11.986,3.823-17.969c0.438-2.006,1.624-3.111,3.855-3.086c6.306,0.068,12.613,0.03,18.92,0.026
	c1.725-0.011,2.762,0.739,3.16,2.489c1.426,6.291,2.927,12.57,4.373,18.861c0.29,1.26-0.04,2.389-1.39,2.77
	c-1.41,0.39-2.67,0-3.27-1.49c-0.37-0.92-0.61-1.88-0.89-2.83c-1.39-4.83-1.39-4.83-6.65-4.84c-3.98-0.01-7.97,0.141-11.95-0.05
	c-2.64-0.12-4.05,0.739-4.31,3.45c-0.13,1.31-0.57,2.58-0.89,3.869c-0.45,1.791-1.71,2.42-3.38,1.98
	c-1.66-0.439-1.69-1.82-1.37-3.21L85.36,266.607z M102.42,255.334c2.165,0,4.332,0.057,6.493-0.023
	c1.036-0.041,2.755,0.465,2.58-1.33c-0.123-1.25,0.043-3.248-2.233-3.246c-4.66,0-9.323-0.041-13.983,0.024
	c-1.77,0.021-2.002,1.5-2.155,2.83c-0.206,1.79,1.14,1.71,2.306,1.729c2.33,0.021,4.662,0,6.993,0.011L102.42,255.334z
	 M178.93,245.57c2.997,0.002,5.997,0.07,8.992-0.021c2.123-0.065,3.492,0.638,3.986,2.839c1.31,5.832,2.734,11.639,3.986,17.485
	c0.289,1.351,0.896,3.21-1.156,3.8c-2.27,0.65-3.17-0.781-3.85-2.785c-2.17-6.359-2.24-6.34-9.08-6.34c-3.5,0-7,0.1-10.49-0.029
	c-2.25-0.09-3.389,0.619-3.529,3c-0.09,1.469-0.551,2.939-1.02,4.359c-0.461,1.391-1.49,2.189-3.061,1.98
	c-1.84-0.25-2.029-1.631-1.75-2.99c1.311-6.35,2.689-12.67,4.1-18.99c0.45-2.05,2.061-2.35,3.851-2.33c3,0.03,5.989,0,8.989,0
	L178.93,245.57z M178.718,255.327c2.33,0,4.66,0.016,6.992-0.007c1.194-0.012,2.45-0.03,2.297-1.786
	c-0.12-1.384-0.347-2.772-2.149-2.79c-4.662-0.04-9.323-0.03-13.984-0.008c-1.926,0.011-1.898,1.508-1.995,2.826
	c-0.13,1.761,1.183,1.733,2.349,1.754C174.389,255.357,176.555,255.327,178.718,255.327L178.718,255.327z M42.63,287.717
	c-3.82,0-7.642,0.016-11.463-0.008c-1.49-0.01-2.584,0.221-2.523,2.141c0.057,1.789,1.02,2.229,2.553,2.229
	c5.483-0.011,10.967-0.06,16.448,0.05c2.165,0.04,5.295-0.71,5.202,2.86c-0.082,3.14-2.93,2.53-5,2.55
	c-4.818,0.05-9.636,0-14.455,0.02c-4.643,0.01-4.644,0.03-4.78,4.44c-0.027,0.83,0.016,1.66-0.072,2.489
	c-0.156,1.471-0.888,2.541-2.46,2.65c-1.59,0.101-2.4-0.92-2.748-2.35c-0.117-0.48-0.166-0.99-0.167-1.48
	c-0.01-5.649,0-11.3-0.01-16.949c-0.003-2.631,1.06-3.881,3.91-3.84c8.97,0.119,17.942,0.029,26.914,0.039
	c1.67,0,3.6-0.109,3.75,2.211c0.16,2.469-1.59,2.949-3.64,2.93c-3.82-0.03-7.65-0.01-11.47-0.01L42.63,287.717z M181.529,304.047
	c-0.063,1.607-0.409,2.675-1.877,2.838c-1.248,0.139-2.358-0.174-2.817-1.49c-0.601-1.717-1.317-3.435-1.592-5.213
	c-0.327-2.111-1.396-2.686-3.364-2.652c-4.99,0.087-9.98,0.134-14.96-0.014c-2.489-0.074-3.66,0.799-3.931,3.295
	c-0.17,1.629-0.629,3.268-1.209,4.807c-0.471,1.233-1.69,1.518-2.93,1.276c-1.42-0.274-1.961-1.345-1.701-2.598
	c1.351-6.489,2.761-12.97,4.261-19.427c0.38-1.641,1.71-2.311,3.42-2.301c6.31,0.021,12.63,0.011,18.95,0.011
	c1.43,0,2.729,0.399,3.1,1.94c1.6,6.6,3.141,13.22,4.62,19.52L181.529,304.047z M164.02,292.334c2.334,0,4.668,0.061,6.998-0.027
	c0.998-0.039,2.727,0.512,2.387-1.443c-0.221-1.281-0.039-3.18-2.332-3.155c-4.498,0.045-8.996,0.043-13.494-0.002
	c-2.128-0.021-2.413,1.41-2.485,2.983c-0.081,1.785,1.294,1.615,2.431,1.633c2.166,0.029,4.332,0.008,6.498,0.012H164.02z
	 M128.837,287.707c-3.162,0.003-6.325-0.07-9.486,0.02c-3.72,0.108-4.98,1.355-5.3,5.104c-0.11,1.32-0.09,2.667,0.01,3.99
	c0.31,3.84,1.41,4.957,5.3,5.018c5.831,0.09,11.651,0.023,17.48,0.027c1.171,0,2.33-0.018,3.5,0.035
	c1.729,0.08,2.771,0.824,2.8,2.75c0.03,1.76-1.029,2.286-2.459,2.51c-0.65,0.1-1.32,0.154-1.98,0.155
	c-6.32,0.01-12.65,0.134-18.97-0.028c-7.95-0.203-10.65-3.116-10.7-11.104c-0.08-11.654,1.86-13.606,13.51-13.617
	c5.66-0.004,11.32-0.012,16.98,0.013c1.66,0,3.539-0.19,3.59,2.31c0.058,2.641-1.811,2.801-3.75,2.811c-3.49,0.01-6.983,0-10.48,0
	L128.837,287.707z M202.436,307.32c-4.16,0-8.324-0.072-12.48,0.022c-3.02,0.07-4.691-0.884-4.604-4.27
	c0.148-5.654,0.03-11.316,0.051-16.974c0.004-1.74,0.121-3.451,2.512-3.49c2.314-0.041,2.686,1.51,2.689,3.33
	c0.011,4.319,0.078,8.649-0.012,12.979c-0.043,2.08,0.655,2.99,2.848,2.96c6.156-0.09,12.315-0.04,18.473-0.02
	c1.58,0,3.02,0.01,2.986-2.25c-0.029-1.86,1.181-2.75,2.92-2.49c1.871,0.27,2.051,1.83,2.181,3.41c0.49,5.859-0.271,6.739-6.09,6.77
	c-3.83,0.021-7.66,0-11.49,0L202.436,307.32z M140.627,245.574c4.646,0,9.29,0.01,13.938-0.006c1.619-0.006,3.109,0.268,3.24,2.228
	c0.149,2.216-1.324,2.776-3.218,2.763c-2.489-0.02-5.003,0.221-7.46-0.06c-3.5-0.399-4.21,1.22-4.035,4.29
	c0.215,3.8,0.032,7.63,0.061,11.439c0.012,1.94-0.035,3.851-2.703,3.73c-2.27-0.1-2.461-1.8-2.45-3.57
	c0.01-4.15-0.12-8.3,0.04-12.439c0.09-2.49-0.551-3.67-3.28-3.45c-2.64,0.21-5.31-0.011-7.96,0.06c-1.98,0.051-3.3-0.67-3.279-2.77
	c0.02-2.04,1.549-2.24,3.149-2.24c4.64,0.01,9.29,0,13.931,0L140.627,245.574z M66.84,294.854c0,2.986,0.013,5.971-0.004,8.955
	c-0.012,1.92-0.764,3.221-2.93,3.11c-2.186-0.12-2.036-1.771-2.04-3.271c-0.01-5.97-0.008-11.939,0-17.91
	c0-1.539-0.014-3.1,2.194-3.119c2.25-0.02,2.77,1.4,2.777,3.26c0.01,2.98,0.002,5.971,0.003,8.95V294.854z"/>
</svg>
